<mxfile host="app.diagrams.net" modified="2024-04-29T12:40:49.951Z" agent="Mozilla/5.0 (X11; Linux x86_64; rv:125.0) Gecko/20100101 Firefox/125.0" version="23.1.5" etag="R8aJTVAeT68tD0TbPoOt" type="github">
  <diagram name="Page-1" id="34ug6gVIL4L0EsiPmH4W">
    <mxGraphModel>
      <root>
        <mxCell id="0" />
        <mxCell id="1" parent="0" />
        <mxCell id="2" value="User" style="swimlane;fontStyle=1;align=center;verticalAlign=top;childLayout=stackLayout;horizontal=1;startSize=28.285714285714285;horizontalStack=0;resizeParent=1;resizeParentMax=0;resizeLast=0;collapsible=0;marginBottom=0;" vertex="1" parent="1">
          <mxGeometry x="10" y="8" width="115" height="107" as="geometry" />
        </mxCell>
        <mxCell id="3" value="+name: String" style="text;strokeColor=none;fillColor=none;align=left;verticalAlign=top;spacingLeft=4;spacingRight=4;overflow=hidden;rotatable=0;points=[[0,0.5],[1,0.5]];portConstraint=eastwest;" vertex="1" parent="2">
          <mxGeometry y="28" width="115" height="28" as="geometry" />
        </mxCell>
        <mxCell id="4" value="+age: int" style="text;strokeColor=none;fillColor=none;align=left;verticalAlign=top;spacingLeft=4;spacingRight=4;overflow=hidden;rotatable=0;points=[[0,0.5],[1,0.5]];portConstraint=eastwest;" vertex="1" parent="2">
          <mxGeometry y="57" width="115" height="28" as="geometry" />
        </mxCell>
        <mxCell id="5" style="line;strokeWidth=1;fillColor=none;align=left;verticalAlign=middle;spacingTop=-1;spacingLeft=3;spacingRight=3;rotatable=0;labelPosition=right;points=[];portConstraint=eastwest;strokeColor=inherit;" vertex="1" parent="2">
          <mxGeometry y="85" width="115" height="14" as="geometry" />
        </mxCell>
        <mxCell id="6" value="Address" style="swimlane;fontStyle=1;align=center;verticalAlign=top;childLayout=stackLayout;horizontal=1;startSize=28.285714285714285;horizontalStack=0;resizeParent=1;resizeParentMax=0;resizeLast=0;collapsible=0;marginBottom=0;" vertex="1" parent="1">
          <mxGeometry x="8" y="185" width="118" height="107" as="geometry" />
        </mxCell>
        <mxCell id="7" value="+street: String" style="text;strokeColor=none;fillColor=none;align=left;verticalAlign=top;spacingLeft=4;spacingRight=4;overflow=hidden;rotatable=0;points=[[0,0.5],[1,0.5]];portConstraint=eastwest;" vertex="1" parent="6">
          <mxGeometry y="28" width="118" height="28" as="geometry" />
        </mxCell>
        <mxCell id="8" value="+city: String" style="text;strokeColor=none;fillColor=none;align=left;verticalAlign=top;spacingLeft=4;spacingRight=4;overflow=hidden;rotatable=0;points=[[0,0.5],[1,0.5]];portConstraint=eastwest;" vertex="1" parent="6">
          <mxGeometry y="57" width="118" height="28" as="geometry" />
        </mxCell>
        <mxCell id="9" style="line;strokeWidth=1;fillColor=none;align=left;verticalAlign=middle;spacingTop=-1;spacingLeft=3;spacingRight=3;rotatable=0;labelPosition=right;points=[];portConstraint=eastwest;strokeColor=inherit;" vertex="1" parent="6">
          <mxGeometry y="85" width="118" height="14" as="geometry" />
        </mxCell>
        <mxCell id="10" value="has" style="curved=1;startArrow=diamondThin;startSize=14;startFill=1;endArrow=none;exitX=0.4956521739130435;exitY=1;entryX=0.5;entryY=0;" edge="1" parent="1" source="2" target="6">
          <mxGeometry relative="1" as="geometry">
            <Array as="points" />
          </mxGeometry>
        </mxCell>
      </root>
    </mxGraphModel>
  </diagram>
</mxfile>
